<!DOCTYPE svg PUBLIC "-//W3C//DTD SVG 1.1//EN" "http://www.w3.org/Graphics/SVG/1.1/DTD/svg11.dtd">
<!-- Uploaded to: SVG Repo, www.svgrepo.com, Transformed by: SVG Repo Mixer Tools -->
<svg fill="#000000" version="1.1" id="Layer_1" xmlns="http://www.w3.org/2000/svg" xmlns:xlink="http://www.w3.org/1999/xlink" viewBox="0 0 485 485" xml:space="preserve" width="256px" height="256px">
<g id="SVGRepo_bgCarrier" stroke-width="0"/>
<g id="SVGRepo_tracerCarrier" stroke-linecap="round" stroke-linejoin="round"/>
<g id="SVGRepo_iconCarrier"> <g> <g> <g> <path d="M467.5,155H395v-30h65V0H265v125h65v30H155v-30h65V0H25v125h65v30H17.5C7.851,155,0,162.851,0,172.5v150 c0,9.649,7.851,17.5,17.5,17.5H20v145h445V340h2.5c9.649,0,17.5-7.851,17.5-17.5v-150C485,162.851,477.149,155,467.5,155z M280,15h165v65H280V15z M280,110V95h165v15H280z M380,125v30h-35v-30H380z M40,15h165v65H40V15z M40,110V95h165v15H40z M140,125 v30h-35v-30H140z M360,465H125v-50h235V465z M450,470h-25v-52.5h-15V470h-35v-70H110v70H75v-52.5H60V470H35v-90h415V470z M450,365H35v-25h415V365z M470,322.5c0,1.355-1.145,2.5-2.5,2.5h-450c-1.355,0-2.5-1.145-2.5-2.5v-150 c0-1.355,1.145-2.5,2.5-2.5H235v117.5h15V170h217.5c1.355,0,2.5,1.145,2.5,2.5V322.5z"/> <rect x="32.5" y="195" width="20" height="15"/> <rect x="72.5" y="195" width="20" height="15"/> <rect x="112.5" y="195" width="20" height="15"/> <rect x="152.5" y="195" width="20" height="15"/> <rect x="192.5" y="195" width="20" height="15"/> <rect x="32.5" y="225" width="20" height="15"/> <rect x="192.5" y="225" width="20" height="15"/> <rect x="32.5" y="255" width="20" height="15"/> <rect x="192.5" y="255" width="20" height="15"/> <rect x="32.5" y="285" width="20" height="15"/> <rect x="72.5" y="285" width="20" height="15"/> <rect x="192.5" y="285" width="20" height="15"/> <rect x="272.5" y="195" width="20" height="15"/> <rect x="312.5" y="195" width="20" height="15"/> <rect x="352.5" y="195" width="20" height="15"/> <rect x="392.5" y="195" width="20" height="15"/> <rect x="432.5" y="195" width="20" height="15"/> <rect x="272.5" y="225" width="20" height="15"/> <rect x="312.5" y="225" width="20" height="15"/> <rect x="352.5" y="225" width="20" height="15"/> <rect x="272.5" y="255" width="20" height="15"/> <rect x="312.5" y="255" width="20" height="15"/> <rect x="352.5" y="255" width="20" height="15"/> <rect x="272.5" y="285" width="20" height="15"/> <rect x="312.5" y="285" width="20" height="15"/> <rect x="352.5" y="285" width="20" height="15"/> <path d="M395,300h55v-75h-55V300z M410,240h25v45h-25V240z"/> <path d="M75,270h40v30h55v-75H75V270z M90,240h65v45h-25v-30H90V240z"/> <rect x="227.5" y="430" width="30" height="15"/> </g> </g> </g> </g>
</svg>