<!DOCTYPE svg PUBLIC "-//W3C//DTD SVG 1.1//EN" "http://www.w3.org/Graphics/SVG/1.1/DTD/svg11.dtd">
<!-- Uploaded to: SVG Repo, www.svgrepo.com, Transformed by: SVG Repo Mixer Tools -->
<svg fill="#000000" height="256px" width="256px" version="1.1" id="Layer_1" xmlns="http://www.w3.org/2000/svg" xmlns:xlink="http://www.w3.org/1999/xlink" viewBox="0 0 512 512" xml:space="preserve">
<g id="SVGRepo_bgCarrier" stroke-width="0"/>
<g id="SVGRepo_tracerCarrier" stroke-linecap="round" stroke-linejoin="round"/>
<g id="SVGRepo_iconCarrier"> <g> <g> <g> <path d="M119.467,341.333h51.2c4.713,0,8.533-3.821,8.533-8.533c0-4.713-3.82-8.533-8.533-8.533h-51.2 c-4.713,0-8.533,3.821-8.533,8.533C110.933,337.513,114.754,341.333,119.467,341.333z"/> <path d="M187.733,358.4H102.4c-4.713,0-8.533,3.82-8.533,8.533s3.82,8.533,8.533,8.533h85.333c4.713,0,8.533-3.82,8.533-8.533 S192.446,358.4,187.733,358.4z"/> <path d="M145.067,264.533c4.713,0,8.533-3.82,8.533-8.533V51.2c0-4.713-3.821-8.533-8.533-8.533s-8.533,3.82-8.533,8.533V256 C136.533,260.713,140.354,264.533,145.067,264.533z"/> <path d="M385.925,192.8c6.065,9.354,17.193,13.437,27.446,10.987l14.708,22.718c2.561,3.956,7.845,5.087,11.801,2.526 s5.087-7.845,2.526-11.801l-14.708-22.718c6.433-8.354,7.264-20.183,1.209-29.537l-9.28-14.327l7.163-4.638 c3.955-2.561,5.086-7.843,2.526-11.799l-18.543-28.655c-2.561-3.957-7.845-5.089-11.802-2.527l-7.332,4.747l-27.748-40.756 c1.956-4.893,3.042-10.228,3.042-15.819c0-23.563-19.104-42.667-42.667-42.667c-13.957,0-26.349,6.704-34.133,17.067h-96.127 C183.185,10.152,165.267,0,145.067,0c-32.873,0-59.733,26.861-59.733,59.733v162.989C65.859,226.676,51.2,243.893,51.2,264.533 v128h-8.533c-4.713,0-8.533,3.821-8.533,8.533v25.6H25.6c-4.713,0-8.533,3.82-8.533,8.533v25.6H8.533 C3.82,460.8,0,464.621,0,469.333v34.133C0,508.18,3.82,512,8.533,512H281.6c4.713,0,8.533-3.82,8.533-8.533v-34.133 c0-4.713-3.82-8.533-8.533-8.533h-8.533v-25.6c0-4.713-3.821-8.533-8.533-8.533H256v-25.6c0-4.713-3.82-8.533-8.533-8.533h-8.533 v-128c0-20.64-14.659-37.858-34.133-41.811V76.8h85.334c7,9.318,17.725,15.674,29.964,16.861l28.562,41.94l-6.998,4.53 c-3.956,2.561-5.087,7.845-2.526,11.801l18.552,28.655c2.561,3.956,7.845,5.087,11.801,2.525l7.163-4.638L385.925,192.8z M400.248,183.52l-9.27-14.32l14.323-9.276l9.279,14.325c2.554,3.945,1.43,9.222-2.506,11.785 c-0.007,0.005-0.015,0.008-0.022,0.013c-0.007,0.005-0.013,0.01-0.021,0.015C408.08,188.605,402.81,187.472,400.248,183.52z M102.4,59.733c0-23.447,19.219-42.667,42.667-42.667c15.496,0,29.139,8.397,36.615,20.859c0.083,0.167,0.152,0.336,0.247,0.5 c2.807,4.823,4.637,10.072,5.399,15.531c0.021,0.154,0.04,0.31,0.06,0.465c0.088,0.685,0.155,1.375,0.209,2.066 c0.017,0.226,0.038,0.451,0.052,0.678c0.05,0.817,0.08,1.637,0.082,2.46c0,0.036,0.003,0.071,0.003,0.107V230.4v15.147 c0,19.249-11.904,36.201-28.732,42.219c-0.376,0.131-0.751,0.265-1.132,0.386c-0.101,0.033-0.203,0.064-0.304,0.096 c-2.512,0.777-5.121,1.322-7.802,1.62c-0.221,0.024-0.441,0.049-0.661,0.069c-0.442,0.042-0.888,0.074-1.334,0.102 c-0.38,0.023-0.759,0.042-1.137,0.055c-0.336,0.012-0.673,0.021-1.011,0.026c-0.49,0.005-0.978,0.002-1.464-0.009 c-0.24-0.005-0.479-0.009-0.718-0.018c-0.612-0.024-1.221-0.062-1.827-0.112c-0.116-0.009-0.232-0.016-0.347-0.027 c-6.888-0.628-13.345-2.909-18.942-6.456c-0.027-0.017-0.055-0.035-0.082-0.053c-0.564-0.359-1.119-0.734-1.665-1.119 c-0.092-0.065-0.184-0.131-0.276-0.197c-0.471-0.338-0.934-0.686-1.391-1.042c-0.147-0.115-0.294-0.229-0.439-0.346 c-0.387-0.31-0.767-0.629-1.143-0.952c-0.195-0.168-0.391-0.334-0.583-0.505c-0.307-0.273-0.606-0.554-0.905-0.835 c-0.242-0.229-0.486-0.455-0.723-0.69c-0.22-0.217-0.432-0.441-0.648-0.663c-0.297-0.307-0.596-0.612-0.884-0.927 c-0.108-0.117-0.21-0.24-0.316-0.359c-3.081-3.45-5.617-7.395-7.459-11.702c-0.019-0.043-0.038-0.086-0.056-0.13 c-0.241-0.568-0.467-1.144-0.684-1.724c-0.037-0.099-0.074-0.197-0.11-0.297c-0.197-0.54-0.382-1.086-0.557-1.636 c-0.048-0.15-0.095-0.301-0.141-0.452c-0.157-0.512-0.305-1.028-0.443-1.548c-0.053-0.202-0.103-0.405-0.154-0.608 c-0.12-0.482-0.235-0.966-0.338-1.454c-0.054-0.258-0.102-0.518-0.152-0.777c-0.086-0.445-0.17-0.89-0.241-1.34 c-0.052-0.328-0.093-0.66-0.138-0.991c-0.053-0.393-0.109-0.785-0.152-1.182c-0.046-0.432-0.076-0.868-0.108-1.304 c-0.023-0.307-0.054-0.613-0.071-0.922c-0.04-0.754-0.063-1.514-0.063-2.278V230.4V59.733z M273.067,494.933h-256v-17.067H25.6 h238.933h8.533V494.933z M34.133,460.8v-17.067h8.533h204.8H256V460.8H34.133z M51.2,426.667V409.6h8.533H230.4h8.533v17.067 H51.2z M221.867,264.533v128h-153.6v-128c0-11.145,7.124-20.628,17.067-24.143v7.076c0,1.072,0.032,2.137,0.088,3.195 c0.022,0.422,0.065,0.837,0.096,1.257c0.047,0.625,0.089,1.25,0.155,1.869c0.056,0.533,0.133,1.06,0.203,1.589 c0.066,0.49,0.126,0.982,0.204,1.468c0.095,0.596,0.207,1.186,0.319,1.776c0.077,0.403,0.151,0.807,0.236,1.207 c0.136,0.642,0.287,1.277,0.443,1.91c0.083,0.334,0.164,0.668,0.253,1c0.179,0.676,0.372,1.346,0.574,2.013 c0.083,0.274,0.168,0.548,0.255,0.82c0.226,0.706,0.463,1.407,0.714,2.102c0.078,0.216,0.159,0.43,0.239,0.645 c0.276,0.736,0.562,1.465,0.866,2.187c0.065,0.155,0.134,0.307,0.2,0.461c0.331,0.769,0.674,1.531,1.036,2.283 c0.039,0.08,0.08,0.159,0.119,0.239c2.393,4.909,5.437,9.433,9.017,13.472c0.219,0.248,0.433,0.501,0.657,0.745 c0.365,0.399,0.743,0.784,1.119,1.173c0.334,0.347,0.667,0.695,1.009,1.034c0.318,0.314,0.644,0.618,0.969,0.924 c0.424,0.401,0.85,0.799,1.285,1.188c0.276,0.246,0.558,0.486,0.839,0.727c0.506,0.435,1.018,0.864,1.539,1.282 c0.236,0.189,0.474,0.376,0.714,0.561c0.588,0.458,1.183,0.904,1.788,1.34c0.192,0.138,0.385,0.276,0.579,0.412 c0.674,0.474,1.358,0.932,2.051,1.379c0.141,0.091,0.281,0.182,0.422,0.271c0.769,0.486,1.551,0.954,2.343,1.405 c0.078,0.044,0.154,0.09,0.232,0.134c5.394,3.041,11.297,5.272,17.549,6.516c0.015,0.003,0.03,0.005,0.045,0.008 c0.98,0.194,1.969,0.364,2.966,0.509c0.248,0.036,0.498,0.062,0.747,0.096c0.763,0.101,1.528,0.195,2.3,0.267 c0.381,0.036,0.766,0.059,1.149,0.088c0.644,0.048,1.288,0.092,1.937,0.118c0.467,0.02,0.936,0.027,1.406,0.036 c0.358,0.006,0.713,0.027,1.073,0.027c0.219,0,0.434-0.014,0.652-0.017c0.516-0.005,1.034-0.021,1.553-0.04 c0.529-0.019,1.056-0.044,1.581-0.077c0.57-0.035,1.141-0.079,1.714-0.131c0.427-0.039,0.853-0.085,1.278-0.133 c0.409-0.046,0.816-0.074,1.227-0.128c0.33-0.044,0.654-0.105,0.982-0.154c0.065-0.01,0.13-0.021,0.195-0.031 c1.919-0.295,3.804-0.684,5.652-1.164c0.038-0.01,0.076-0.02,0.114-0.03c0.817-0.214,1.627-0.445,2.429-0.693 c0.218-0.067,0.435-0.134,0.651-0.203c0.532-0.172,1.06-0.352,1.586-0.539c0.525-0.184,1.048-0.373,1.566-0.571 c0.106-0.041,0.21-0.083,0.316-0.125c22.319-8.672,38.238-30.397,38.238-55.698v-1.92v-5.156 C214.742,243.905,221.867,253.388,221.867,264.533z M204.801,59.733c0-0.911-0.029-1.818-0.07-2.723 c-0.013-0.277-0.03-0.552-0.046-0.828c-0.038-0.624-0.086-1.246-0.143-1.867c-0.03-0.326-0.056-0.652-0.09-0.976 c-0.081-0.746-0.176-1.489-0.285-2.229c-0.088-0.6-0.193-1.193-0.298-1.787c-0.034-0.188-0.066-0.376-0.101-0.563 c-0.388-2.07-0.879-4.104-1.476-6.094h80.164c-0.56,2.757-0.855,5.611-0.855,8.533s0.295,5.776,0.855,8.533H204.801z M302.817,65.167c-0.16-0.404-0.346-0.805-0.575-1.198c-2.042-3.502-3.242-7.241-3.514-11.086 c-0.001-0.014-0.002-0.027-0.003-0.041c-0.038-0.545-0.057-1.092-0.057-1.641s0.019-1.096,0.057-1.641 c0.001-0.014,0.002-0.028,0.003-0.041c0.272-3.845,1.473-7.585,3.514-11.086c0.229-0.393,0.415-0.794,0.575-1.198 c4.569-7.002,12.466-11.633,21.449-11.633c14.137,0,25.6,11.463,25.6,25.6c0,3.501-0.705,6.837-1.977,9.876l-1.352,2.437 c-4.457,8.034-12.713,13.121-21.931,13.245l-1.279,0.017C314.735,76.466,307.226,71.923,302.817,65.167z M339.083,91.22 c5.442-2.016,10.355-5.115,14.491-9.029l23.734,34.86l-9.849,6.378l-4.47,2.894L339.083,91.22z M367.376,164.148L358.1,149.82 l0.169-0.109l0.002,0.003l18.602-12.047l24.21-15.674l9.271,14.327L367.376,164.148z"/> <path d="M503.467,324.267c4.713,0,8.533-3.82,8.533-8.533v-51.2c0-4.713-3.82-8.533-8.533-8.533H384 c-4.713,0-8.533,3.82-8.533,8.533v51.2c0,4.713,3.82,8.533,8.533,8.533h8.533v119.467H384c-4.713,0-8.533,3.821-8.533,8.533v51.2 c0,4.713,3.82,8.533,8.533,8.533h119.467c4.713,0,8.533-3.82,8.533-8.533v-51.2c0-4.713-3.82-8.533-8.533-8.533h-8.533V324.267 H503.467z M392.533,273.067h102.4V307.2H486.4h-85.333h-8.533V273.067z M494.933,494.933h-102.4V460.8h8.533H486.4h8.533V494.933 z M477.867,443.733H409.6V324.267h68.267V443.733z"/> </g> </g> </g> </g>
</svg>