<!DOCTYPE svg PUBLIC "-//W3C//DTD SVG 1.1//EN" "http://www.w3.org/Graphics/SVG/1.1/DTD/svg11.dtd">
<!-- Uploaded to: SVG Repo, www.svgrepo.com, Transformed by: SVG Repo Mixer Tools -->
<svg fill="#000000" height="256px" width="256px" version="1.1" id="Layer_1" xmlns="http://www.w3.org/2000/svg" xmlns:xlink="http://www.w3.org/1999/xlink" viewBox="0 0 512.003 512.003" xml:space="preserve">
<g id="SVGRepo_bgCarrier" stroke-width="0"/>
<g id="SVGRepo_tracerCarrier" stroke-linecap="round" stroke-linejoin="round"/>
<g id="SVGRepo_iconCarrier"> <g> <g> <g> <path d="M329.005,351.303c-1.153-0.771-2.503-1.266-3.96-1.397c-8.49-2.867-17.301-5.059-26.377-6.498v-19.141h60.745 c13.284,0,25.029-8.632,28.992-21.314l4.19-13.415c22.448-71.843,22.448-148.831,0-220.675l-4.19-13.414 c-3.362-10.762-12.336-18.584-23.09-20.714C356.316,13.255,310.782,0,256.001,0S155.686,13.255,146.688,34.734 c-10.755,2.13-19.728,9.952-23.09,20.713l-4.19,13.415c-22.448,71.843-22.448,148.831,0,220.675l4.19,13.414 c3.963,12.683,15.708,21.315,28.992,21.315h60.745v19.141c-9.077,1.439-17.888,3.632-26.377,6.498 c-1.456,0.132-2.807,0.627-3.96,1.397c-62.323,22.873-106.196,82.735-106.196,152.166c0,4.713,3.82,8.533,8.533,8.533h341.333 c4.713,0,8.533-3.821,8.533-8.533C435.201,434.038,391.327,374.176,329.005,351.303z M256.001,17.067 c26.66,0,51.561,3.511,69.708,9.56c7.102,2.367,12.665,4.971,16.661,7.507H169.633c3.996-2.535,9.559-5.139,16.661-7.507 C204.44,20.578,229.341,17.067,256.001,17.067z M139.888,297.863l-4.19-13.414c-21.413-68.53-21.413-141.968,0-210.497 l4.19-13.415c1.736-5.555,6.881-9.337,12.702-9.337h206.822c5.82,0,10.966,3.782,12.702,9.337l4.19,13.414 c21.413,68.53,21.413,141.968,0,210.497l-4.19,13.415c-1.736,5.555-6.881,9.337-12.702,9.337h-69.278h-68.267H152.59 C146.77,307.2,141.624,303.418,139.888,297.863z M281.601,324.267v26.601v16.066c0,14.137-11.463,25.6-25.6,25.6 c-14.137,0-25.6-11.463-25.6-25.6v-16.066v-26.601H281.601z M213.335,366.933v0.003c0,23.563,19.104,42.667,42.667,42.667 c23.563,0,42.667-19.104,42.667-42.667v-0.003v-6.22c5.822,1.035,11.516,2.422,17.067,4.124v61.829H196.268v-61.829 c5.551-1.702,11.244-3.089,17.067-4.124V366.933z M341.335,494.933H170.668v-51.2h170.667V494.933z M179.201,371.281v55.386 h-17.067c-4.713,0-8.533,3.82-8.533,8.533v59.736H94.116C97.312,440.093,131.114,393.01,179.201,371.281z M358.401,494.936V435.2 c0-4.713-3.821-8.533-8.533-8.533h-17.067v-55.386c48.088,21.729,81.89,68.813,85.085,123.655H358.401z"/> <path d="M349.868,187.733V102.4c0-4.713-3.821-8.533-8.533-8.533H170.668c-4.713,0-8.533,3.82-8.533,8.533v85.333 c0,4.713,3.821,8.533,8.533,8.533h170.667C346.047,196.267,349.868,192.446,349.868,187.733z M332.801,179.2h-153.6v-68.267 h153.6V179.2z"/> <path d="M315.735,256c0-4.713-3.82-8.533-8.533-8.533h-102.4c-4.713,0-8.533,3.82-8.533,8.533s3.82,8.533,8.533,8.533h102.4 C311.914,264.533,315.735,260.713,315.735,256z"/> <path d="M210.835,159.634l17.067-17.067c3.332-3.332,3.332-8.735,0-12.068c-3.332-3.333-8.735-3.333-12.068,0l-17.067,17.067 c-3.332,3.332-3.332,8.735,0,12.068C202.1,162.966,207.503,162.966,210.835,159.634z"/> <path d="M253.502,159.634l17.067-17.067c3.332-3.332,3.332-8.735,0-12.068c-3.333-3.333-8.735-3.333-12.068,0l-17.067,17.067 c-3.332,3.332-3.332,8.735,0,12.068C244.766,162.966,250.169,162.966,253.502,159.634z"/> <path d="M296.169,159.634l17.067-17.067c3.332-3.332,3.332-8.735,0-12.068c-3.333-3.333-8.736-3.333-12.068,0l-17.067,17.067 c-3.332,3.332-3.332,8.735,0,12.068C287.433,162.966,292.836,162.966,296.169,159.634z"/> </g> </g> </g> </g>
</svg>