<!DOCTYPE svg PUBLIC "-//W3C//DTD SVG 1.1//EN" "http://www.w3.org/Graphics/SVG/1.1/DTD/svg11.dtd">
<!-- Uploaded to: SVG Repo, www.svgrepo.com, Transformed by: SVG Repo Mixer Tools -->
<svg fill="#000000" width="256px" height="256px" viewBox="-9.5 0 32 32" version="1.1" xmlns="http://www.w3.org/2000/svg">
<g id="SVGRepo_bgCarrier" stroke-width="0"/>
<g id="SVGRepo_tracerCarrier" stroke-linecap="round" stroke-linejoin="round"/>
<g id="SVGRepo_iconCarrier"> <title>slide-v-alt</title> <path d="M4.64 7.28v17.4c0 0.48-0.36 0.84-0.84 0.84s-0.84-0.36-0.84-0.84v-14.88l-1.44 1.92c-0.28 0.36-0.8 0.44-1.2 0.16-0.36-0.28-0.44-0.8-0.16-1.2l3-3.88c0.2-0.28 0.6-0.4 0.96-0.28 0.32 0.080 0.52 0.4 0.52 0.76zM13.24 20.8c0 0.16-0.040 0.36-0.16 0.52l-3 3.88c-0.2 0.28-0.6 0.4-0.96 0.28s-0.56-0.44-0.56-0.8v-17.4c0-0.48 0.36-0.84 0.84-0.84s0.84 0.36 0.84 0.84v14.92l1.44-1.92c0.28-0.36 0.8-0.44 1.2-0.16 0.24 0.16 0.36 0.4 0.36 0.68z"/> </g>
</svg>